<svg width="16" height="16" viewBox="0 0 16 16" fill="none"
    xmlns="http://www.w3.org/2000/svg">
    <path fill-rule="evenodd" clip-rule="evenodd" d="M3.33268 8.66668H11.2427L8.82068 11.5733C8.58468 11.856 8.62335 12.2767 8.90601 12.512C9.18935 12.748 9.60935 12.7093 9.84535 12.4267L13.1787 8.42668C13.2047 8.39534 13.2173 8.35868 13.2367 8.32401C13.2527 8.29601 13.272 8.27201 13.284 8.24134C13.314 8.16468 13.332 8.08401 13.332 8.00268C13.332 8.00201 13.3327 8.00068 13.3327 8.00001C13.3327 7.99934 13.332 7.99801 13.332 7.99734C13.332 7.91601 13.314 7.83534 13.284 7.75868C13.272 7.72801 13.2527 7.70401 13.2367 7.67601C13.2173 7.64134 13.2047 7.60468 13.1787 7.57334L9.84535 3.57334C9.71268 3.41534 9.52335 3.33334 9.33268 3.33334C9.18202 3.33334 9.03068 3.38401 8.90601 3.48801C8.62335 3.72334 8.58468 4.14401 8.82068 4.42668L11.2427 7.33334H3.33268C2.96468 7.33334 2.66602 7.63201 2.66602 8.00001C2.66602 8.36801 2.96468 8.66668 3.33268 8.66668Z" fill="#FB6320"/>
    <mask id="mask0_7320_44816" style="mask-type:alpha" maskUnits="userSpaceOnUse" x="2" y="3" width="12" height="10">
        <path fill-rule="evenodd" clip-rule="evenodd" d="M3.33268 8.66668H11.2427L8.82068 11.5733C8.58468 11.856 8.62335 12.2767 8.90601 12.512C9.18935 12.748 9.60935 12.7093 9.84535 12.4267L13.1787 8.42668C13.2047 8.39534 13.2173 8.35868 13.2367 8.32401C13.2527 8.29601 13.272 8.27201 13.284 8.24134C13.314 8.16468 13.332 8.08401 13.332 8.00268C13.332 8.00201 13.3327 8.00068 13.3327 8.00001C13.3327 7.99934 13.332 7.99801 13.332 7.99734C13.332 7.91601 13.314 7.83534 13.284 7.75868C13.272 7.72801 13.2527 7.70401 13.2367 7.67601C13.2173 7.64134 13.2047 7.60468 13.1787 7.57334L9.84535 3.57334C9.71268 3.41534 9.52335 3.33334 9.33268 3.33334C9.18202 3.33334 9.03068 3.38401 8.90601 3.48801C8.62335 3.72334 8.58468 4.14401 8.82068 4.42668L11.2427 7.33334H3.33268C2.96468 7.33334 2.66602 7.63201 2.66602 8.00001C2.66602 8.36801 2.96468 8.66668 3.33268 8.66668Z" fill="white"/>
    </mask>
</svg>
