<svg width="16" height="17" viewBox="0 0 16 17" fill="none" xmlns="http://www.w3.org/2000/svg">
<path fill-rule="evenodd" clip-rule="evenodd" d="M8.00059 11.1667C7.84859 11.1667 7.69726 11.1154 7.57392 11.012L3.57392 7.6787C3.29126 7.44336 3.25259 7.0227 3.48859 6.74003C3.72392 6.45736 4.14392 6.41936 4.42726 6.6547L8.00792 9.6387L11.5826 6.76203C11.8693 6.53136 12.2893 6.5767 12.5199 6.86336C12.7506 7.15003 12.7053 7.56936 12.4186 7.8007L8.41859 11.0194C8.29659 11.1174 8.14859 11.1667 8.00059 11.1667Z" fill="#9A9A9A"/>
<mask id="mask0_7411_45307" style="mask-type:alpha" maskUnits="userSpaceOnUse" x="3" y="6" width="10" height="6">
<path fill-rule="evenodd" clip-rule="evenodd" d="M8.00059 11.1667C7.84859 11.1667 7.69726 11.1154 7.57392 11.012L3.57392 7.6787C3.29126 7.44336 3.25259 7.0227 3.48859 6.74003C3.72392 6.45736 4.14392 6.41936 4.42726 6.6547L8.00792 9.6387L11.5826 6.76203C11.8693 6.53136 12.2893 6.5767 12.5199 6.86336C12.7506 7.15003 12.7053 7.56936 12.4186 7.8007L8.41859 11.0194C8.29659 11.1174 8.14859 11.1667 8.00059 11.1667Z" fill="white"/>
</mask>
<g mask="url(#mask0_7411_45307)">
<rect y="0.5" width="16" height="16" fill="#9A9A9A"/>
</g>
</svg>
