<svg width="24" height="24" viewBox="0 0 24 24" fill="none" xmlns="http://www.w3.org/2000/svg">
<path fill-rule="evenodd" clip-rule="evenodd" d="M7.13713 5.66444C6.53295 6.30168 6.98468 7.35247 7.86281 7.35247H21C21.5523 7.35247 22 7.80329 22 8.35557C22 8.90786 21.5523 9.35868 21 9.35868H3.29224C2.41407 9.35868 1.96235 8.3078 2.56661 7.67059L7.65761 2.3019C8.03928 1.8994 8.68047 1.89936 9.0622 2.30181C9.41635 2.67518 9.41642 3.26041 9.06234 3.63386L7.13713 5.66444ZM3 15.9875C2.44772 15.9875 2 15.5315 2 14.9792C2 14.4269 2.44771 13.9709 3 13.9709H20.7078C21.5859 13.9709 22.0376 15.0218 21.4334 15.659L16.3372 21.0331C15.9579 21.4331 15.3211 21.4343 14.9403 21.0358C14.5851 20.6641 14.5839 20.0791 14.9377 19.7061L16.8629 17.6755C17.467 17.0382 17.0153 15.9875 16.1372 15.9875H3Z" fill="#939DA5"/>
</svg>
